<svg xmlns="http://www.w3.org/2000/svg" width="448" height="448" viewBox="0 0 448 448" version="1.1">
  <path d="M 95.500 8.623 C 84.632 11.276, 79 14.210, 79 17.219 C 79 19.714, 83.416 24.572, 108.664 49.853 C 132.800 74.022, 136 77.593, 136 80.358 C 136 83.118, 133.053 86.431, 111.191 108.245 C 90.868 128.523, 85.886 133, 83.642 133 C 81.390 133, 75.799 127.924, 52.247 104.500 C 21.959 74.376, 20.658 73.405, 16.597 77.893 C 15.655 78.934, 13.964 84.221, 12.839 89.643 C 9.136 107.488, 12.206 135.505, 19.250 148.156 C 20.580 150.545, 21.961 153.675, 22.318 155.110 C 24.526 163.978, 46.172 188.296, 56.841 193.895 C 58.303 194.663, 59.725 195.575, 60 195.923 C 60.275 196.271, 62.413 197.399, 64.750 198.429 C 67.088 199.460, 69 200.602, 69 200.967 C 69 201.596, 79.219 205.495, 83.500 206.500 C 84.600 206.758, 88.425 207.727, 92 208.654 C 100.157 210.769, 121.725 211.028, 131.239 209.125 C 134.945 208.384, 139.029 208.041, 140.313 208.364 C 141.597 208.686, 144.729 211.060, 147.271 213.639 C 151.284 217.709, 151.750 218.604, 150.802 220.414 C 150.202 221.561, 120.627 251.525, 85.081 287 C 49.535 322.475, 18.714 353.459, 16.590 355.853 C 10.465 362.757, 6.838 371.216, 6.681 378.958 C 6.367 394.520, 8.799 398.761, 30.500 420.492 C 51.638 441.659, 54.719 443.500, 69 443.500 C 77.164 443.500, 79.274 443.133, 84 440.893 C 87.025 439.460, 91.525 436.564, 94 434.458 C 96.475 432.352, 128.112 401.012, 164.305 364.814 C 200.498 328.616, 230.590 299, 231.177 299 C 231.764 299, 262.676 329.550, 299.872 366.888 C 371.152 438.443, 372.125 439.316, 384.306 442.619 C 390.647 444.339, 404.381 444.513, 410.196 442.947 C 418.457 440.723, 428.002 435.033, 434.258 428.604 C 442.596 420.034, 449.059 401.778, 447.524 391.131 C 447.156 388.584, 446.629 384.994, 446.351 383.153 C 444.681 372.090, 437.217 362.267, 412.287 338.328 C 400.931 327.422, 366.745 293.729, 336.320 263.453 C 296.627 223.955, 281 207.783, 281 206.202 C 281 204.716, 284.443 200.664, 291.583 193.750 C 306.997 178.821, 327.247 158.601, 345.529 139.883 L 361.558 123.471 371.029 121.618 C 392.104 117.495, 393.891 116.560, 398.571 107.211 C 400.144 104.070, 405.833 93.246, 411.215 83.157 C 416.597 73.068, 421.002 64.518, 421.004 64.157 C 421.007 63.796, 422.316 61.529, 423.915 59.119 C 428.604 52.052, 427.925 50.525, 413.775 36.333 C 402.694 25.219, 401.155 24.020, 397.950 24.011 C 395.997 24.005, 393.837 24.563, 393.150 25.250 C 392.463 25.938, 391.585 26.522, 391.200 26.549 C 390.500 26.597, 382.679 30.730, 372.112 36.637 C 369.025 38.362, 364.475 40.806, 362 42.068 C 359.525 43.330, 357.275 44.618, 357 44.931 C 356.414 45.598, 349.411 49.085, 343 51.903 C 334.811 55.502, 332.933 58.216, 330.479 70 C 329.621 74.125, 328.405 79.975, 327.779 83 L 326.640 88.500 285.587 129.213 C 246.878 167.601, 244.420 169.844, 242.517 168.500 C 241.408 167.716, 233.798 160.587, 225.606 152.658 L 210.713 138.240 211.268 133.870 C 211.574 131.467, 212.363 125.900, 213.022 121.500 C 215.614 104.185, 211.881 82.527, 203.369 65.500 C 199.087 56.933, 198.062 55.145, 193.569 48.399 C 190.736 44.145, 177.352 31.022, 170.958 26.229 C 167.910 23.944, 162.735 20.919, 159.458 19.506 C 156.181 18.094, 151.925 16.100, 150 15.075 C 141.538 10.568, 131.293 8.667, 114 8.395 C 104.925 8.251, 96.600 8.354, 95.500 8.623 M 101.281 21.805 C 100.464 22.324, 107.485 29.976, 122.600 45.040 C 134.996 57.393, 146.007 69.170, 147.069 71.210 C 149.352 75.597, 149.616 83.615, 147.631 88.282 C 145.639 92.964, 96.293 142.562, 91.729 144.469 C 87.391 146.281, 79.624 146.396, 75.714 144.705 C 74.182 144.042, 62.390 132.943, 49.508 120.039 C 36.627 107.136, 25.731 96.937, 25.294 97.374 C 24.857 97.812, 24.531 103.644, 24.568 110.335 C 24.649 124.685, 26.943 134.818, 32.964 147.412 C 49.134 181.235, 87.197 202.319, 122.500 197.007 C 143.924 193.784, 145.123 194, 154.149 202.714 C 160.868 209.201, 160.966 209.252, 163.443 207.629 C 166.577 205.576, 201.786 196.797, 204.031 197.510 C 204.940 197.798, 206.746 199.166, 208.045 200.548 L 210.407 203.062 222.182 191.319 L 233.956 179.575 217.122 162.537 C 204.650 149.914, 199.959 144.491, 199.019 141.606 C 197.756 137.732, 197.983 133.082, 199.951 122.500 C 202.387 109.399, 200.338 91.006, 194.858 76.791 C 184.172 49.072, 156.559 26.799, 127 22.058 C 119.419 20.842, 103.051 20.681, 101.281 21.805 M 370.554 52.470 C 355.689 60.430, 345.338 66.570, 344.941 67.664 C 344.574 68.674, 342.978 75.350, 341.395 82.500 L 338.515 95.500 279.631 154.334 L 220.747 213.169 228.780 221.084 C 233.199 225.438, 237.192 229, 237.654 229 C 238.116 229, 264.820 202.718, 296.997 170.596 L 355.500 112.192 369.500 108.989 C 377.200 107.227, 384.017 105.271, 384.649 104.643 C 385.910 103.390, 412 54.606, 412 53.503 C 412 52.167, 398.210 39.001, 396.867 39.056 C 396.115 39.086, 384.274 45.122, 370.554 52.470 M 184.362 216.211 L 172.224 219.231 164.620 226.880 L 157.016 234.528 186.800 264.300 L 216.584 294.071 224.068 286.286 L 231.553 278.500 234.906 264.639 L 238.259 250.779 219.390 231.889 C 206.776 219.263, 199.853 213.032, 198.510 213.096 C 197.404 213.149, 191.038 214.551, 184.362 216.211 M 259.024 228.476 L 247.580 239.952 250.290 242.781 C 251.839 244.398, 253 246.741, 253 248.252 C 253 252.296, 245.292 283.061, 243.337 286.819 L 241.611 290.138 309.055 357.437 C 386.334 434.548, 381.436 430.527, 398 430.464 C 406.228 430.433, 408.243 430.068, 413.046 427.738 C 420.486 424.129, 427.592 417.112, 430.819 410.186 C 434.579 402.117, 435.067 389.946, 431.970 381.500 C 429.850 375.718, 426.890 372.615, 350.649 296.250 C 307.133 252.662, 271.290 217, 270.998 217 C 270.706 217, 265.318 222.164, 259.024 228.476 M 85.287 306.250 C 19.220 372.364, 20.044 371.408, 20.044 382 C 20.044 389.185, 22.448 394.207, 29.051 400.816 L 34.363 406.132 102.675 337.825 L 170.988 269.517 158.759 257.259 C 152.033 250.516, 146.522 245, 146.512 245 C 146.502 245, 118.951 272.563, 85.287 306.250 M 112.905 347.788 C 50.834 409.834, 44.840 416.110, 46.107 417.719 C 50.124 422.816, 56.990 428.167, 61.387 429.628 C 67.112 431.530, 75.031 431.044, 80.137 428.477 C 81.987 427.548, 111.067 399.270, 144.759 365.638 L 206.019 304.489 193.557 292.056 L 181.094 279.624 112.905 347.788 M 390.010 372.316 C 384.497 374.071, 378.373 380.909, 376.479 387.423 C 369.898 410.063, 397.403 426.698, 414.242 410.262 C 419.388 405.240, 421.341 399.691, 420.823 391.564 C 420.491 386.355, 419.809 384.190, 417.437 380.814 C 411.664 372.600, 400.237 369.059, 390.010 372.316 M 394.500 386.208 C 389.436 389.112, 388.483 395.125, 392.370 399.644 C 397.466 405.568, 407 401.585, 407 393.533 C 407 391.014, 406.233 389.533, 403.923 387.589 C 400.618 384.807, 397.690 384.378, 394.500 386.208" stroke="none" fill="#000000" fill-rule="evenodd"/>
  <path d="M 95.5 8.623 M 101.281 21.805 C 100.464 22.324 107.485 29.976 122.6 45.04 C 134.996 57.393 146.007 69.17 147.069 71.21 C 149.352 75.597 149.616 83.615 147.631 88.282 C 145.639 92.964 96.293 142.562 91.729 144.469 C 87.391 146.281 79.624 146.396 75.714 144.705 C 74.182 144.042 62.39 132.943 49.508 120.039 C 36.627 107.136 25.731 96.937 25.294 97.374 C 24.857 97.812 24.531 103.644 24.568 110.335 C 24.649 124.685 26.943 134.818 32.964 147.412 C 49.134 181.235 87.197 202.319 122.5 197.007 C 143.924 193.784 145.123 194 154.149 202.714 C 160.868 209.201 160.966 209.252 163.443 207.629 C 166.577 205.576 201.786 196.797 204.031 197.51 C 204.94 197.798 206.746 199.166 208.045 200.548 L 210.407 203.062 L 222.182 191.319 L 233.956 179.575 L 217.122 162.537 C 204.65 149.914 199.959 144.491 199.019 141.606 C 197.756 137.732 197.983 133.082 199.951 122.5 C 202.387 109.399 200.338 91.006 194.858 76.791 C 184.172 49.072 156.559 26.799 127 22.058 C 119.419 20.842 103.051 20.681 101.281 21.805 M 370.554 52.47 C 355.689 60.43 345.338 66.57 344.941 67.664 C 344.574 68.674 342.978 75.35 341.395 82.5 L 338.515 95.5 L 279.631 154.334 L 220.747 213.169 L 228.78 221.084 C 233.199 225.438 237.192 229 237.654 229 C 238.116 229 264.82 202.718 296.997 170.596 L 355.5 112.192 L 369.5 108.989 C 377.2 107.227 384.017 105.271 384.649 104.643 C 385.91 103.39 412 54.606 412 53.503 C 412 52.167 398.21 39.001 396.867 39.056 C 396.115 39.086 384.274 45.122 370.554 52.47 M 259.024 228.476 L 247.58 239.952 L 250.29 242.781 C 251.839 244.398 253 246.741 253 248.252 C 253 252.296 245.292 283.061 243.337 286.819 L 241.611 290.138 L 309.055 357.437 C 386.334 434.548 381.436 430.527 398 430.464 C 406.228 430.433 408.243 430.068 413.046 427.738 C 420.486 424.129 427.592 417.112 430.819 410.186 C 434.579 402.117 435.067 389.946 431.97 381.5 C 429.85 375.718 426.89 372.615 350.649 296.25 C 307.133 252.662 271.29 217 270.998 217 C 270.706 217 265.318 222.164 259.024 228.476 M 390.01 372.316 C 384.497 374.071 378.373 380.909 376.479 387.423 C 369.898 410.063 397.403 426.698 414.242 410.262 C 419.388 405.24 421.341 399.691 420.823 391.564 C 420.491 386.355 419.809 384.19 417.437 380.814 C 411.664 372.6 400.237 369.059 390.01 372.316" stroke="none" fill="#bec2c5" fill-rule="evenodd"/>
  <path d="M 95.5 8.623 M 184.362 216.211 L 172.224 219.231 L 164.62 226.88 L 157.016 234.528 L 186.8 264.3 L 216.584 294.071 L 224.068 286.286 L 231.553 278.5 L 234.906 264.639 L 238.259 250.779 L 219.39 231.889 C 206.776 219.263 199.853 213.032 198.51 213.096 C 197.404 213.149 191.038 214.551 184.362 216.211 M 85.287 306.25 C 19.22 372.364 20.044 371.408 20.044 382 C 20.044 389.185 22.448 394.207 29.051 400.816 L 34.363 406.132 L 102.675 337.825 L 170.988 269.517 L 158.759 257.259 C 152.033 250.516 146.522 245 146.512 245 C 146.502 245 118.951 272.563 85.287 306.25 M 112.905 347.788 C 50.834 409.834 44.84 416.11 46.107 417.719 C 50.124 422.816 56.99 428.167 61.387 429.628 C 67.112 431.53 75.031 431.044 80.137 428.477 C 81.987 427.548 111.067 399.27 144.759 365.638 L 206.019 304.489 L 193.557 292.056 L 181.094 279.624 L 112.905 347.788" stroke="none" fill="#3b9bd8" fill-rule="evenodd"/>
</svg>